<svg width="19" height="30" viewBox="0 0 19 30" fill="none" xmlns="http://www.w3.org/2000/svg">
<path d="M18 6C18 5.44772 17.5523 5 17 5H16V9H17C17.5523 9 18 8.55228 18 8V6Z" fill="#101828"/>
<path d="M18 22C18 21.4477 17.5523 21 17 21H16V25H17C17.5523 25 18 24.5523 18 24V22Z" fill="#101828"/>
<path d="M1 4C1 2.34315 2.34315 1 4 1H13C14.6569 1 16 2.34315 16 4V26C16 27.6569 14.6569 29 13 29H4C2.34315 29 1 27.6569 1 26V4Z" fill="#101828"/>
<path d="M4 5.5C4 4.67157 4.67157 4 5.5 4H11.5C12.3284 4 13 4.67157 13 5.5V8.5C13 9.32843 12.3284 10 11.5 10H5.5C4.67157 10 4 9.32843 4 8.5V5.5Z" fill="#101828"/>
<path d="M4 13.5C4 12.6716 4.67157 12 5.5 12H11.5C12.3284 12 13 12.6716 13 13.5V24.5C13 25.3284 12.3284 26 11.5 26H5.5C4.67157 26 4 25.3284 4 24.5V13.5Z" fill="#101828"/>
<path d="M18 6C18 5.44772 17.5523 5 17 5H16V9H17C17.5523 9 18 8.55228 18 8V6Z" stroke="white"/>
<path d="M18 22C18 21.4477 17.5523 21 17 21H16V25H17C17.5523 25 18 24.5523 18 24V22Z" stroke="white"/>
<path d="M1 4C1 2.34315 2.34315 1 4 1H13C14.6569 1 16 2.34315 16 4V26C16 27.6569 14.6569 29 13 29H4C2.34315 29 1 27.6569 1 26V4Z" stroke="white"/>
<path d="M4 5.5C4 4.67157 4.67157 4 5.5 4H11.5C12.3284 4 13 4.67157 13 5.5V8.5C13 9.32843 12.3284 10 11.5 10H5.5C4.67157 10 4 9.32843 4 8.5V5.5Z" stroke="white"/>
<path d="M4 13.5C4 12.6716 4.67157 12 5.5 12H11.5C12.3284 12 13 12.6716 13 13.5V24.5C13 25.3284 12.3284 26 11.5 26H5.5C4.67157 26 4 25.3284 4 24.5V13.5Z" stroke="white"/>
</svg>
