<svg width="34" height="40" viewBox="0 0 34 40" fill="none" xmlns="http://www.w3.org/2000/svg">
<path d="M8.66723 6C3.88096 6 0 9.88068 0 14.6672C0 19.4524 3.88068 23.3333 8.66723 23.3333C13.4538 23.3333 17.3333 19.4524 17.3333 14.6672C17.3333 9.88096 13.4535 6 8.66723 6ZM8.66723 7.39205C11.902 7.39205 14.6506 9.51675 15.5937 12.4425C15.2306 12.3797 14.7619 12.3017 14.2371 12.2147V12.1003C14.2371 11.6392 13.8619 11.2651 13.4008 11.2651H3.93476C3.47253 11.2651 3.09958 11.6392 3.09958 12.1003V12.2147C2.57369 12.3006 2.10498 12.3797 1.7419 12.4425C2.68495 9.51675 5.43244 7.39205 8.66723 7.39205ZM9.71789 21.8655L9.90267 18.9828H7.43151L7.61854 21.8655C4.35615 21.3923 1.79035 18.7473 1.43599 15.4497H3.17113C3.27451 15.6796 3.57055 15.8908 3.7542 15.937C3.7542 15.937 3.75871 15.937 3.76068 15.937C5.27696 15.937 6.28029 17.0792 6.88872 18.3995C7.01294 18.669 7.35968 18.7989 7.66558 18.7989H9.91563C10.2049 18.7989 10.5055 18.6845 10.6164 18.4392C11.2074 17.133 12.2361 16.4069 13.6434 15.9404C13.8129 15.8844 14.0802 15.639 14.1639 15.4497H15.899C15.5452 18.7471 12.9772 21.3923 9.71789 21.8655Z" fill="black"/>
<path fill-rule="evenodd" clip-rule="evenodd" d="M27.433 33.2067L25.6783 38.6667H21.7036L22.023 37.4973C22.031 37.4653 22.0236 37.4333 22.0276 37.4013L22.9976 33.7033C22.9983 33.702 22.9976 33.7013 22.9976 33.7L23.3763 32.256C23.523 31.732 23.8836 31.2613 24.3656 30.9653C24.8503 30.668 25.391 30.5813 25.889 30.72C26.0176 30.756 26.141 30.8053 26.2583 30.864C26.3643 30.9173 26.467 30.9807 26.5643 31.052C26.5696 31.0553 26.575 31.058 26.5803 31.0613C26.789 31.2173 26.975 31.4133 27.127 31.6407C27.1403 31.66 27.1576 31.6733 27.1716 31.6907C27.4603 32.1507 27.5736 32.7 27.433 33.2067ZM2.45495 36.0993L20.5163 37.9053L20.317 38.6667H3.30961L2.45495 36.0993ZM32.1643 8.14933V7.22933C33.0443 6.95733 33.4976 6.106 33.4976 4.66667C33.4976 1.934 33.4016 0 32.1643 0C29.6696 0 28.831 3.20467 28.831 4.66667C28.831 5.26533 28.8376 6.96867 30.831 7.27933V8.06267C29.2403 8.354 28.267 9.706 27.341 11.6273C27.1676 11.9893 26.727 12.638 26.1696 13.4593C23.5116 17.3767 17.981 25.5287 21.141 32.4707C21.159 32.51 21.177 32.556 21.1963 32.6013C16.6116 31.614 8.13828 29.8487 4.39961 29.4587C2.66961 29.2793 1.44361 29.6407 0.75228 30.5367C-0.442387 32.0867 0.51228 34.612 0.82628 35.442L0.86428 35.5433L2.19695 39.544C2.28761 39.8167 2.54228 40 2.82961 40H20.831H26.1643C26.4536 40 26.7103 39.8133 26.799 39.5373L28.7096 33.5893C28.9423 32.7553 28.7976 31.8887 28.3923 31.1527L32.8076 11.898C32.913 11.5113 33.401 9.53267 32.6543 8.55467C32.519 8.37733 32.3536 8.24267 32.1643 8.14933Z" fill="black"/>
</svg>
