<svg width="44" height="40" viewBox="0 0 44 40" fill="none" xmlns="http://www.w3.org/2000/svg">
<path fill-rule="evenodd" clip-rule="evenodd" d="M27.2655 33.2067L25.5108 38.6667H21.5361L21.8555 37.4973C21.8635 37.4653 21.8561 37.4333 21.8601 37.4013L22.8301 33.7033C22.8308 33.702 22.8301 33.7013 22.8301 33.7L23.2088 32.256C23.3555 31.732 23.7161 31.2613 24.1981 30.9653C24.6828 30.668 25.2235 30.5813 25.7215 30.72C25.8501 30.756 25.9735 30.8053 26.0908 30.864C26.1968 30.9173 26.2995 30.9807 26.3968 31.052C26.4021 31.0553 26.4075 31.058 26.4128 31.0613C26.6215 31.2173 26.8075 31.4133 26.9595 31.6407C26.9728 31.66 26.9901 31.6733 27.0041 31.6907C27.2928 32.1507 27.4061 32.7 27.2655 33.2067ZM2.28747 36.0993L20.3488 37.9053L20.1495 38.6667H3.14213L2.28747 36.0993ZM31.9968 8.14933V7.22933C32.8768 6.95733 33.3301 6.106 33.3301 4.66667C33.3301 1.934 33.2341 0 31.9968 0C29.5021 0 28.6635 3.20467 28.6635 4.66667C28.6635 5.26533 28.6701 6.96867 30.6635 7.27933V8.06267C29.0728 8.354 28.0995 9.706 27.1735 11.6273C27.0001 11.9893 26.5595 12.638 26.0021 13.4593C23.3441 17.3767 17.8135 25.5287 20.9735 32.4707C20.9915 32.51 21.0095 32.556 21.0288 32.6013C16.4441 31.614 7.9708 29.8487 4.23213 29.4587C2.50213 29.2793 1.27613 29.6407 0.5848 30.5367C-0.609867 32.0867 0.3448 34.612 0.6588 35.442L0.6968 35.5433L2.02947 39.544C2.12013 39.8167 2.3748 40 2.66213 40H20.6635H25.9968C26.2861 40 26.5428 39.8133 26.6315 39.5373L28.5421 33.5893C28.7748 32.7553 28.6301 31.8887 28.2248 31.1527L32.6401 11.898C32.7455 11.5113 33.2335 9.53267 32.4868 8.55467C32.3515 8.37733 32.1861 8.24267 31.9968 8.14933Z" fill="black"/>
<path d="M28.9932 33.1274C29.5287 32.987 30.0263 32.7297 30.4503 32.3738C30.8743 32.018 31.2141 31.5726 31.4453 31.0696L39.6345 13.3737C39.8559 12.8909 39.9723 12.3665 39.9759 11.8354C39.9795 11.3042 39.8703 10.7783 39.6555 10.2925C39.959 10.1245 40.2242 9.89512 40.4342 9.61896L42.6897 6.63668C43.0178 6.20199 43.1862 5.6676 43.1667 5.12335C43.1471 4.5791 42.9407 4.05819 42.5822 3.64821C42.5019 3.55676 42.4043 3.48202 42.2951 3.42827C42.1859 3.37452 42.0671 3.3428 41.9456 3.33494C41.8242 3.32708 41.7023 3.34322 41.5871 3.38245C41.4718 3.42167 41.3654 3.48321 41.274 3.56355C41.1825 3.6439 41.1078 3.74146 41.054 3.85069C41.0003 3.95991 40.9686 4.07865 40.9607 4.20013C40.9529 4.32161 40.969 4.44345 41.0082 4.55869C41.0474 4.67393 41.109 4.78032 41.1893 4.87178C41.2671 4.96034 41.3119 5.07302 41.3162 5.19079C41.3204 5.30856 41.2839 5.4242 41.2128 5.51817L38.9573 8.49797C38.8863 8.59598 38.787 8.66993 38.6728 8.70992C38.5586 8.7499 38.4349 8.75401 38.3183 8.72168C38.1105 8.63197 37.8771 8.62137 37.662 8.6919C37.447 8.76242 37.2652 8.90918 37.1508 9.10451C37.0365 9.29984 36.9976 9.53024 37.0415 9.75227C37.0853 9.9743 37.2089 10.1726 37.3889 10.3098C37.7273 10.571 37.9672 10.9391 38.0695 11.3541C38.1719 11.7691 38.1306 12.2065 37.9524 12.5951L29.7632 30.2922C29.6455 30.5474 29.4727 30.7734 29.2573 30.954C29.042 31.1346 28.7893 31.2652 28.5174 31.3366C28.3008 31.3951 28.1128 31.5303 27.9882 31.717C27.8637 31.9037 27.8111 32.1292 27.8402 32.3517C27.8694 32.5742 27.9782 32.7786 28.1466 32.927C28.315 33.0753 28.5315 33.1575 28.7559 33.1583C28.8361 33.1589 28.9159 33.1486 28.9932 33.1274Z" fill="black"/>
<path d="M12.8617 0H10.8417C8.81365 0 7.16565 1.652 7.16565 3.676V8.824C7.16565 10.852 8.81765 12.5 10.8417 12.5H12.8617C14.8897 12.5 16.5376 10.848 16.5376 8.824V3.676C16.5376 1.652 14.8857 0 12.8617 0Z" fill="black"/>
</svg>
