<svg width="45" height="42" viewBox="0 0 45 42" fill="none" xmlns="http://www.w3.org/2000/svg">
<path fill-rule="evenodd" clip-rule="evenodd" d="M27.1063 31.4245C25.6387 31.0155 24.067 32.0259 23.658 33.4935L21.6891 40.9996H27.2063L29.1753 34.8728C29.5842 33.4052 28.5739 31.8335 27.1063 31.4245Z" stroke="black" stroke-width="2" stroke-linecap="round" stroke-linejoin="round"/>
<path fill-rule="evenodd" clip-rule="evenodd" d="M32.7236 7.20687C30.9822 7.20687 30.6547 6.34481 30.6547 5.13791C30.6547 3.93102 31.3443 1 33.4133 1C34.1029 1 34.1029 3.75861 34.1029 5.13791C34.1029 5.82757 34.1029 7.20687 32.7236 7.20687Z" stroke="black" stroke-width="2" stroke-linecap="round" stroke-linejoin="round"/>
<path d="M32.7234 9.27599V7.20703" stroke="black" stroke-width="2" stroke-linecap="round" stroke-linejoin="round"/>
<path fill-rule="evenodd" clip-rule="evenodd" d="M1.68909 36.8623L3.06701 41.0002H21.689L22.2566 38.9188L1.68909 36.8623Z" stroke="black" stroke-width="2" stroke-linecap="round" stroke-linejoin="round"/>
<path fill-rule="evenodd" clip-rule="evenodd" d="M32.7233 9.27539C31.1716 9.27539 30.1661 10.3099 29.0454 12.6374C27.9247 14.965 18.844 25.2808 22.6371 33.6146C22.8206 34.0167 23.0275 34.7132 23.2626 35.0001L23.6578 33.4932C24.0668 32.0256 25.6392 31.0153 27.1061 31.4243C27.8019 31.6181 28.3881 32.0774 28.7757 32.6587L33.413 12.4361C33.413 12.4361 34.275 9.27539 32.7233 9.27539Z" stroke="black" stroke-width="2" stroke-linecap="round" stroke-linejoin="round"/>
<path fill-rule="evenodd" clip-rule="evenodd" d="M23.2627 34.9999C19.0048 34.0723 8.83791 31.9103 4.62 31.4703C-0.782049 30.9061 1.37311 35.9992 1.68898 36.8613L22.2358 38.9164L23.2627 34.9999Z" stroke="black" stroke-width="2" stroke-linecap="round" stroke-linejoin="round"/>
<path d="M30.1608 34.7944C30.6963 34.654 31.1939 34.3966 31.6179 34.0408C32.0419 33.685 32.3818 33.2395 32.6129 32.7366L40.8021 15.0407C41.0235 14.5578 41.1399 14.0335 41.1435 13.5024C41.1471 12.9712 41.0379 12.4453 40.8231 11.9595C41.1266 11.7915 41.3918 11.5621 41.6018 11.2859L43.8573 8.30366C44.1854 7.86898 44.3538 7.33459 44.3343 6.79034C44.3147 6.24609 44.1083 5.72518 43.7498 5.31521C43.6695 5.22375 43.5719 5.14901 43.4627 5.09526C43.3534 5.04151 43.2347 5.0098 43.1132 5.00194C42.9917 4.99407 42.8699 5.01022 42.7547 5.04944C42.6394 5.08867 42.533 5.15021 42.4416 5.23055C42.3501 5.31089 42.2754 5.40845 42.2216 5.51768C42.1679 5.6269 42.1362 5.74564 42.1283 5.86712C42.1204 5.9886 42.1366 6.11044 42.1758 6.22568C42.215 6.34092 42.2766 6.44731 42.3569 6.53877C42.4347 6.62733 42.4795 6.74001 42.4837 6.85778C42.488 6.97555 42.4515 7.09119 42.3804 7.18516L40.1248 10.165C40.0539 10.263 39.9546 10.3369 39.8404 10.3769C39.7262 10.4169 39.6025 10.421 39.4859 10.3887C39.2781 10.299 39.0447 10.2884 38.8296 10.3589C38.6146 10.4294 38.4327 10.5762 38.3184 10.7715C38.2041 10.9668 38.1652 11.1972 38.2091 11.4193C38.2529 11.6413 38.3765 11.8396 38.5565 11.9768C38.8949 12.238 39.1348 12.6061 39.2371 13.0211C39.3395 13.4361 39.2982 13.8735 39.12 14.262L30.9308 31.9592C30.8131 32.2144 30.6403 32.4404 30.4249 32.621C30.2096 32.8015 29.9569 32.9322 29.685 33.0035C29.4684 33.0621 29.2804 33.1973 29.1558 33.384C29.0313 33.5707 28.9787 33.7962 29.0078 34.0187C29.037 34.2412 29.1459 34.4456 29.3142 34.5939C29.4826 34.7423 29.6991 34.8245 29.9235 34.8253C30.0037 34.8259 30.0835 34.8155 30.1608 34.7944Z" fill="black"/>
<path d="M10.676 2H12.696C14.1677 2 15.372 3.20428 15.372 4.676V9.82399C15.372 11.2964 14.171 12.5 12.696 12.5H10.676C9.20358 12.5 8 11.299 8 9.82399V4.676C8 3.20358 9.20099 2 10.676 2Z" stroke="black" stroke-width="2"/>
</svg>
