<svg width="34" height="40" viewBox="0 0 34 40" fill="none" xmlns="http://www.w3.org/2000/svg">
<path fill-rule="evenodd" clip-rule="evenodd" d="M27.2681 33.2067L25.5133 38.6667H21.5382L21.8576 37.4973C21.8656 37.4653 21.8582 37.4333 21.8622 37.4013L22.8323 33.7033V33.7L23.211 32.256C23.3577 31.732 23.7184 31.2613 24.2005 30.9653C24.6852 30.668 25.2259 30.5813 25.7239 30.72C25.8526 30.756 25.976 30.8053 26.0933 30.864C26.1993 30.9173 26.302 30.9807 26.3993 31.052C26.4047 31.0553 26.41 31.058 26.4153 31.0613C26.624 31.2173 26.81 31.4133 26.9621 31.6407C26.9754 31.66 26.9927 31.6733 27.0067 31.6907C27.2954 32.1507 27.4088 32.7 27.2681 33.2067ZM2.28769 36.0993L20.3508 37.9053L20.1514 38.6667H3.14243L2.28769 36.0993ZM31.9999 8.14933V7.22933C32.88 6.95733 33.3333 6.106 33.3333 4.66667C33.3333 1.934 33.2373 0 31.9999 0C29.505 0 28.6662 3.20467 28.6662 4.66667C28.6662 5.26533 28.6729 6.96867 30.6664 7.27933V8.06267C29.0756 8.354 28.1022 9.706 27.1761 11.6273C27.0027 11.9893 26.562 12.638 26.0046 13.4593C23.3464 17.3767 17.8152 25.5287 20.9755 32.4707C20.9935 32.51 21.0115 32.556 21.0308 32.6013C16.4457 31.614 7.97156 29.8487 4.23254 29.4587C2.50237 29.2793 1.27626 29.6407 0.584856 30.5367C-0.609926 32.0867 0.344833 34.612 0.658863 35.442L0.696866 35.5433L2.02966 39.544C2.12034 39.8167 2.37503 40 2.66239 40H20.6655H25.9993C26.2887 40 26.5454 39.8133 26.634 39.5373L28.5449 33.5893C28.7776 32.7553 28.6329 31.8887 28.2275 31.1527L32.6433 11.898C32.7486 11.5113 33.2367 9.53267 32.4899 8.55467C32.3546 8.37733 32.1892 8.24267 31.9999 8.14933Z" fill="black"/>
</svg>
