<svg width="36" height="42" viewBox="0 0 36 42" fill="none" xmlns="http://www.w3.org/2000/svg">
<path fill-rule="evenodd" clip-rule="evenodd" d="M27.1063 31.425C25.6387 31.016 24.067 32.0264 23.658 33.4939L21.6891 41.0001H27.2063L29.1753 34.8732C29.5842 33.4057 28.5739 31.834 27.1063 31.425Z" stroke="black" stroke-width="2" stroke-linecap="round" stroke-linejoin="round"/>
<path fill-rule="evenodd" clip-rule="evenodd" d="M32.7236 7.20687C30.9822 7.20687 30.6547 6.34481 30.6547 5.13791C30.6547 3.93102 31.3443 1 33.4133 1C34.1029 1 34.1029 3.75861 34.1029 5.13791C34.1029 5.82757 34.1029 7.20687 32.7236 7.20687Z" stroke="black" stroke-width="2" stroke-linecap="round" stroke-linejoin="round"/>
<path d="M32.7234 9.27599V7.20703" stroke="black" stroke-width="2" stroke-linecap="round" stroke-linejoin="round"/>
<path fill-rule="evenodd" clip-rule="evenodd" d="M1.68909 36.8618L3.06701 40.9997H21.689L22.2566 38.9184L1.68909 36.8618Z" stroke="black" stroke-width="2" stroke-linecap="round" stroke-linejoin="round"/>
<path fill-rule="evenodd" clip-rule="evenodd" d="M32.7233 9.27588C31.1716 9.27588 30.1661 10.3104 29.0454 12.6379C27.9247 14.9655 18.844 25.2813 22.6371 33.6151C22.8206 34.0172 23.0275 34.7137 23.2626 35.0006L23.6578 33.4937C24.0668 32.0261 25.6392 31.0158 27.1061 31.4247C27.8019 31.6185 28.3881 32.0778 28.7757 32.6592L33.413 12.4366C33.413 12.4366 34.275 9.27588 32.7233 9.27588Z" stroke="black" stroke-width="2" stroke-linecap="round" stroke-linejoin="round"/>
<path fill-rule="evenodd" clip-rule="evenodd" d="M23.2627 35.0004C19.0048 34.0728 8.83791 31.9107 4.62 31.4708C-0.782049 30.9066 1.37311 35.9997 1.68898 36.8618L22.2358 38.9169L23.2627 35.0004Z" stroke="black" stroke-width="2" stroke-linecap="round" stroke-linejoin="round"/>
</svg>
