<svg width="34" height="40" viewBox="0 0 34 40" fill="none" xmlns="http://www.w3.org/2000/svg">
<path fill-rule="evenodd" clip-rule="evenodd" d="M27.2655 33.2067L25.5108 38.6667H21.5361L21.8555 37.4973C21.8635 37.4653 21.8561 37.4333 21.8601 37.4013L22.8301 33.7033C22.8308 33.702 22.8301 33.7013 22.8301 33.7L23.2088 32.256C23.3555 31.732 23.7161 31.2613 24.1981 30.9653C24.6828 30.668 25.2235 30.5813 25.7215 30.72C25.8501 30.756 25.9735 30.8053 26.0908 30.864C26.1968 30.9173 26.2995 30.9807 26.3968 31.052C26.4021 31.0553 26.4075 31.058 26.4128 31.0613C26.6215 31.2173 26.8075 31.4133 26.9595 31.6407C26.9728 31.66 26.9901 31.6733 27.0041 31.6907C27.2928 32.1507 27.4061 32.7 27.2655 33.2067ZM2.28747 36.0993L20.3488 37.9053L20.1495 38.6667H3.14213L2.28747 36.0993ZM31.9968 8.14933V7.22933C32.8768 6.95733 33.3301 6.106 33.3301 4.66667C33.3301 1.934 33.2341 0 31.9968 0C29.5021 0 28.6635 3.20467 28.6635 4.66667C28.6635 5.26533 28.6701 6.96867 30.6635 7.27933V8.06267C29.0728 8.354 28.0995 9.706 27.1735 11.6273C27.0001 11.9893 26.5595 12.638 26.0021 13.4593C23.3441 17.3767 17.8135 25.5287 20.9735 32.4707C20.9915 32.51 21.0095 32.556 21.0288 32.6013C16.4441 31.614 7.9708 29.8487 4.23213 29.4587C2.50213 29.2793 1.27613 29.6407 0.5848 30.5367C-0.609867 32.0867 0.3448 34.612 0.6588 35.442L0.6968 35.5433L2.02947 39.544C2.12013 39.8167 2.3748 40 2.66213 40H20.6635H25.9968C26.2861 40 26.5428 39.8133 26.6315 39.5373L28.5421 33.5893C28.7748 32.7553 28.6301 31.8887 28.2248 31.1527L32.6401 11.898C32.7455 11.5113 33.2335 9.53267 32.4868 8.55467C32.3515 8.37733 32.1861 8.24267 31.9968 8.14933Z" fill="black"/>
<path d="M12.8617 0H10.8417C8.81365 0 7.16565 1.652 7.16565 3.676V8.824C7.16565 10.852 8.81765 12.5 10.8417 12.5H12.8617C14.8897 12.5 16.5376 10.848 16.5376 8.824V3.676C16.5376 1.652 14.8857 0 12.8617 0Z" fill="black"/>
</svg>
