<svg width="36" height="42" viewBox="0 0 36 42" fill="none" xmlns="http://www.w3.org/2000/svg">
<path fill-rule="evenodd" clip-rule="evenodd" d="M27.1063 31.4245C25.6387 31.0155 24.067 32.0259 23.658 33.4935L21.6891 40.9996H27.2063L29.1753 34.8728C29.5842 33.4052 28.5739 31.8335 27.1063 31.4245Z" stroke="black" stroke-width="2" stroke-linecap="round" stroke-linejoin="round"/>
<path fill-rule="evenodd" clip-rule="evenodd" d="M32.7236 7.20687C30.9822 7.20687 30.6547 6.34481 30.6547 5.13791C30.6547 3.93102 31.3443 1 33.4133 1C34.1029 1 34.1029 3.75861 34.1029 5.13791C34.1029 5.82757 34.1029 7.20687 32.7236 7.20687Z" stroke="black" stroke-width="2" stroke-linecap="round" stroke-linejoin="round"/>
<path d="M32.7234 9.27599V7.20703" stroke="black" stroke-width="2" stroke-linecap="round" stroke-linejoin="round"/>
<path fill-rule="evenodd" clip-rule="evenodd" d="M1.68909 36.8623L3.06701 41.0002H21.689L22.2566 38.9188L1.68909 36.8623Z" stroke="black" stroke-width="2" stroke-linecap="round" stroke-linejoin="round"/>
<path fill-rule="evenodd" clip-rule="evenodd" d="M32.7233 9.27539C31.1716 9.27539 30.1661 10.3099 29.0454 12.6374C27.9247 14.965 18.844 25.2808 22.6371 33.6146C22.8206 34.0167 23.0275 34.7132 23.2626 35.0001L23.6578 33.4932C24.0668 32.0256 25.6392 31.0153 27.1061 31.4243C27.8019 31.6181 28.3881 32.0774 28.7757 32.6587L33.413 12.4361C33.413 12.4361 34.275 9.27539 32.7233 9.27539Z" stroke="black" stroke-width="2" stroke-linecap="round" stroke-linejoin="round"/>
<path fill-rule="evenodd" clip-rule="evenodd" d="M23.2627 34.9999C19.0048 34.0723 8.83791 31.9103 4.62 31.4703C-0.782049 30.9061 1.37311 35.9992 1.68898 36.8613L22.2358 38.9164L23.2627 34.9999Z" stroke="black" stroke-width="2" stroke-linecap="round" stroke-linejoin="round"/>
<path d="M10.9443 2H12.9643C14.436 2 15.6403 3.20428 15.6403 4.676V9.82399C15.6403 11.2964 14.4393 12.5 12.9643 12.5H10.9443C9.47189 12.5 8.26831 11.299 8.26831 9.82399V4.676C8.26831 3.20358 9.4693 2 10.9443 2Z" stroke="black" stroke-width="2"/>
</svg>
