<svg width="24" height="30" viewBox="0 0 24 30" fill="none" xmlns="http://www.w3.org/2000/svg">
<path d="M10.8761 15C10.8761 10.904 11.6099 7.05882 12.9381 4.17957C14.1641 1.52322 15.7894 0 17.3963 0C19.0031 0 20.6285 1.52322 21.8545 4.17957C23.1826 7.05882 23.9164 10.904 23.9164 15C23.9164 19.096 23.1826 22.9412 21.8545 25.8204C20.6285 28.4768 19.0031 30 17.3963 30C17.3684 30 17.3312 30 17.3034 30C17.2569 29.9907 17.2012 29.9814 17.1548 29.9814H17.0898C15.5851 29.805 14.0805 28.3096 12.9288 25.8204C11.6006 22.9412 10.8761 19.096 10.8761 15ZM14.4613 20.5635C15.3158 22.774 16.5325 23.2291 17.3963 23.2291C18.26 23.2291 19.4768 22.7647 20.3312 20.5635C20.8885 19.1331 21.195 17.1548 21.195 15C21.195 12.8452 20.8885 10.8669 20.3312 9.43653C19.4768 7.22601 18.26 6.7709 17.3963 6.7709C16.5325 6.7709 15.3158 7.23529 14.4613 9.43653C13.904 10.8669 13.5975 12.8452 13.5975 15C13.5975 17.1548 13.904 19.1331 14.4613 20.5635Z" fill="black"/>
<path d="M9.98455 27.4091C9.91954 27.0191 9.84524 26.5732 9.61304 26.1553C9.4087 25.7745 9.07434 25.4958 8.78641 25.2543C8.54492 25.0407 8.28486 24.8271 8.21056 24.6321C8.15483 24.4834 8.1827 24.1769 8.21056 23.889C8.257 23.4711 8.30344 23.0067 8.16412 22.533C8.04338 22.0872 7.76474 21.7342 7.51397 21.4184C7.31892 21.1677 7.12387 20.9169 7.08672 20.7218C7.04957 20.5547 7.13316 20.2574 7.21675 19.9788C7.32821 19.5701 7.44895 19.115 7.39322 18.6228C7.33749 18.1584 7.1053 17.7497 6.90096 17.3968C6.75236 17.1274 6.59446 16.8581 6.57588 16.663C6.5666 16.4865 6.68734 16.2079 6.79879 15.9293C6.95669 15.5392 7.14245 15.1026 7.14245 14.6104C7.14245 14.1181 6.95669 13.6816 6.79879 13.2915C6.68734 13.0129 6.5666 12.7342 6.57588 12.5578C6.58517 12.3627 6.74307 12.0841 6.90096 11.8147C7.1053 11.4618 7.33749 11.0624 7.39322 10.5887C7.45824 10.0965 7.32821 9.64134 7.21675 9.23268C7.14245 8.94475 7.05886 8.65682 7.08672 8.48964C7.12387 8.29459 7.32821 8.03453 7.51397 7.79305C7.75545 7.47726 8.04338 7.12432 8.16412 6.6785C8.29415 6.20481 8.24771 5.74042 8.20127 5.32246C8.17341 5.03453 8.13626 4.72803 8.20127 4.57943C8.27558 4.38438 8.53564 4.16147 8.77712 3.95713C9.06505 3.71565 9.39013 3.42772 9.60375 3.05621C9.82666 2.63825 9.91025 2.19243 9.97527 1.80234C10.0217 1.5237 10.0774 1.20791 10.161 1.09645C10.4304 0.771376 10.9876 0.474162 11.4335 0.232676C11.5542 0.167661 11.675 0.102645 11.7864 0.0376297L14.0062 0.00976562C11.257 2.59181 9.39013 8.26673 9.39013 15.0005C9.39013 21.7249 11.2477 27.3813 13.9877 29.9726H12.9195C12.8731 29.9076 12.8174 29.8333 12.7709 29.759C12.5387 29.4153 12.2972 29.0624 11.9443 28.8581C11.6564 28.7002 11.3406 28.5701 11.0155 28.4958C10.6626 28.3937 10.3282 28.3008 10.1796 28.115C10.0867 27.9943 10.031 27.6878 9.98455 27.4091Z" fill="black"/>
<path d="M17.3957 8.24805C18.5288 8.24805 19.7084 10.7744 19.7084 15.0004C19.7084 19.2264 18.5381 21.7527 17.3957 21.7527C16.2533 21.7527 15.083 19.2264 15.083 15.0004C15.083 10.7744 16.2533 8.24805 17.3957 8.24805Z" fill="black"/>
<path d="M6.76096 27.4086C6.69595 27.0185 6.62165 26.5727 6.38945 26.1547C6.18511 25.7739 5.85075 25.4953 5.56282 25.2538C5.32134 25.0402 5.06127 24.8266 4.98697 24.6315C4.93124 24.4829 4.95911 24.1764 4.98697 23.8885C5.03341 23.4705 5.07985 23.0061 4.94053 22.5324C4.81979 22.0866 4.54115 21.7337 4.29038 21.4179C4.09533 21.1764 3.90028 20.9163 3.86313 20.7213C3.82598 20.5541 3.90957 20.2569 3.99316 19.9783C4.10462 19.5696 4.22536 19.1145 4.16963 18.6222C4.11391 18.1578 3.88171 17.7492 3.67737 17.3962C3.52877 17.1269 3.37087 16.8575 3.35229 16.6625C3.34301 16.486 3.46375 16.2074 3.57521 15.9287C3.7331 15.5386 3.91886 15.1021 3.91886 14.6098C3.91886 14.1176 3.7331 13.6811 3.57521 13.291C3.46375 13.0123 3.34301 12.7337 3.35229 12.5572C3.36158 12.3622 3.51948 12.0835 3.67737 11.8142C3.88171 11.4612 4.11391 11.0619 4.16963 10.5882C4.23465 10.0959 4.10462 9.6408 3.99316 9.23213C3.91886 8.94421 3.83527 8.65628 3.86313 8.4891C3.90028 8.29405 4.10462 8.03399 4.29038 7.79251C4.53186 7.47672 4.81979 7.12378 4.94053 6.67795C5.07056 6.20427 5.02412 5.73988 4.97768 5.32192C4.94982 5.03399 4.91267 4.72749 4.97768 4.57888C5.05198 4.38384 5.31205 4.16093 5.55353 3.95659C5.84146 3.71511 6.16654 3.42718 6.38016 3.05566C6.60307 2.647 6.67737 2.19189 6.75168 1.80179C6.79812 1.52316 6.85384 1.20737 6.93743 1.09591C7.20678 0.770835 7.76406 0.473621 8.20988 0.232135C8.32134 0.167119 8.43279 0.111392 8.53496 0.0556641H9.11081C9.08294 0.0835278 9.05508 0.120679 9.02722 0.157831C8.67428 0.575788 8.59068 1.1052 8.51638 1.5696C8.46994 1.8761 8.41422 2.16402 8.31205 2.34978C8.23775 2.4891 8.02412 2.66557 7.82908 2.83275C7.47613 3.12997 7.04889 3.50149 6.83527 4.04947C6.64022 4.53244 6.69595 5.04328 6.74239 5.4891C6.77025 5.7956 6.8074 6.08353 6.75168 6.28786C6.70524 6.45504 6.52877 6.67796 6.36158 6.89158C6.07366 7.25381 5.75787 7.67176 5.64641 8.21975C5.54425 8.73059 5.67428 9.21356 5.79502 9.65009C5.86932 9.93802 5.95291 10.2259 5.92505 10.421C5.90648 10.5975 5.75787 10.8482 5.61855 11.0897C5.39564 11.4891 5.13558 11.9349 5.09843 12.4736C5.07056 12.9937 5.26561 13.4581 5.43279 13.8668C5.54425 14.1362 5.66499 14.4148 5.66499 14.6098C5.66499 14.8049 5.54425 15.0835 5.43279 15.3529C5.25632 15.7615 5.07056 16.2259 5.09843 16.7461C5.13558 17.2848 5.38635 17.7399 5.61855 18.13C5.75787 18.3715 5.90648 18.6315 5.92505 18.7987C5.95291 18.9937 5.86932 19.291 5.79502 19.5696C5.67428 19.9968 5.54425 20.4891 5.64641 20.9999C5.75787 21.5479 6.07366 21.9566 6.36158 22.3281C6.52877 22.5417 6.70524 22.7739 6.75168 22.9318C6.8074 23.1269 6.77954 23.4241 6.74239 23.7306C6.69595 24.1764 6.64022 24.6872 6.83527 25.1702C7.04889 25.7182 7.48542 26.0897 7.82908 26.3869C8.03341 26.5541 8.23775 26.7399 8.31205 26.8792C8.41422 27.0742 8.46994 27.3622 8.51638 27.6594C8.59068 28.1238 8.68356 28.6532 9.02722 29.0711C9.47304 29.6006 10.0953 29.7863 10.5876 29.9256C10.6433 29.9442 10.6898 29.9535 10.7455 29.9721H9.64951C9.59378 29.8978 9.54734 29.8235 9.5009 29.7584C9.27799 29.4241 9.03651 29.0711 8.70214 28.8668C8.41421 28.7089 8.09842 28.5789 7.77335 28.5046C7.42041 28.4024 7.08604 28.3095 6.93743 28.1238C6.86313 27.9937 6.8074 27.6872 6.76096 27.4086Z" fill="black"/>
<path d="M2.05278 4.19847C3.09303 1.94151 4.43049 0.501878 5.79581 0.139648C5.45216 0.557605 5.35928 1.07773 5.28498 1.54213C5.23854 1.84863 5.18281 2.13655 5.08064 2.32231C5.00634 2.46163 4.79272 2.6381 4.59767 2.80528C4.24473 3.1025 3.81749 3.47401 3.60386 4.022C3.40882 4.50497 3.46454 5.01581 3.51098 5.46163C3.53885 5.76813 3.576 6.05606 3.52027 6.26039C3.47383 6.41829 3.29736 6.65048 3.13018 6.86411C2.84225 7.22634 2.52646 7.64429 2.41501 8.19228C2.31284 8.70312 2.44287 9.18609 2.56361 9.62262C2.63792 9.91055 2.72151 10.1985 2.69365 10.3935C2.67507 10.57 2.52646 10.8208 2.38714 11.0623C2.16423 11.4616 1.90417 11.9075 1.86702 12.4461C1.83916 12.9663 2.0342 13.4307 2.20139 13.8393C2.31284 14.1087 2.43358 14.3873 2.43358 14.5824C2.43358 14.7774 2.31284 15.0561 2.20139 15.3254C2.02492 15.7341 1.83916 16.1985 1.86702 16.7186C1.90417 17.2573 2.15495 17.7124 2.38714 18.1025C2.52646 18.344 2.67507 18.604 2.69365 18.7712C2.72151 18.9663 2.63792 19.2635 2.56361 19.5421C2.44287 19.9694 2.31284 20.4616 2.41501 20.9725C2.52646 21.5205 2.84225 21.9291 3.13018 22.3006C3.29736 22.5143 3.47383 22.7465 3.52027 22.9044C3.576 23.0994 3.54814 23.3966 3.51098 23.7031C3.46454 24.1489 3.40882 24.6598 3.60386 25.1427C3.81749 25.6907 4.25402 26.0622 4.59767 26.3595C4.80201 26.5266 5.00634 26.7124 5.08064 26.8517C5.18281 27.0468 5.23854 27.3347 5.28498 27.6319C5.35928 28.0963 5.45216 28.6257 5.79581 29.0437C6.24163 29.5731 6.86392 29.7588 7.35618 29.8982C7.39334 29.9074 7.43978 29.926 7.47693 29.9353H6.54814C4.93204 29.9353 3.29736 28.4214 2.07136 25.7743C0.733894 22.9044 0.00014925 19.0684 0.00014925 14.9818C0.0187249 10.8951 0.743181 7.05915 2.05278 4.19847Z" fill="black"/>
</svg>
